<svg xmlns="http://www.w3.org/2000/svg" width="1920" height="1080" viewBox="0 0 1920 1080">
  <defs>
    <linearGradient id="sky" x1="0" y1="0" x2="0" y2="1">
      <stop offset="0%" stop-color="#0b1736"/>
      <stop offset="60%" stop-color="#0f2a5a"/>
      <stop offset="100%" stop-color="#122f66"/>
    </linearGradient>
    <linearGradient id="glow" x1="0" y1="0" x2="1" y2="1">
      <stop offset="0%" stop-color="#3b82f6" stop-opacity="0.25"/>
      <stop offset="100%" stop-color="#60a5fa" stop-opacity="0"/>
    </linearGradient>
  </defs>
  <rect width="1920" height="1080" fill="url(#sky)"/>
  <circle cx="320" cy="200" r="220" fill="url(#glow)"/>
  <path d="M0 860 L360 520 L720 860 Z" fill="#0b224a"/>
  <path d="M420 860 L860 420 L1320 860 Z" fill="#0a1d3d"/>
  <path d="M980 860 L1380 520 L1760 860 Z" fill="#0a1a36"/>
  <path d="M0 880 L520 600 L1040 880 Z" fill="#102852"/>
  <path d="M840 900 L1320 620 L1920 900 Z" fill="#0f2449"/>
  <path d="M0 806 L282 666 L548 796 L860 598 L1178 846 L1494 706 L1920 864 L1920 1080 L0 1080 Z" fill="#08152d"/>
  <path d="M0 918 L192 854 L448 934 L778 826 L1118 964 L1466 860 L1718 932 L1920 890 L1920 1080 L0 1080 Z" fill="#050d1e"/>
</svg>
