<svg xmlns="http://www.w3.org/2000/svg" viewBox="0 0 740 384" role="img" aria-labelledby="title desc">
  <title id="title">AniMe Vision Mecha Pulse</title>
  <desc id="desc">A stylized futuristic mech wallpaper for AniMe Vision content.</desc>
  <defs>
    <linearGradient id="amBg" x1="0" y1="0" x2="1" y2="1">
      <stop offset="0" stop-color="#09101c"/>
      <stop offset="0.5" stop-color="#171430"/>
      <stop offset="1" stop-color="#0b0911"/>
    </linearGradient>
    <linearGradient id="amGlow" x1="0" y1="0" x2="1" y2="1">
      <stop offset="0" stop-color="#50d6ff"/>
      <stop offset="0.5" stop-color="#6a7dff"/>
      <stop offset="1" stop-color="#f95bd4"/>
    </linearGradient>
  </defs>
  <rect width="740" height="384" fill="url(#amBg)"/>
  <g opacity="0.22" stroke="#ffffff" stroke-width="2">
    <path d="M0 86H740"/><path d="M0 170H740"/><path d="M0 254H740"/>
    <path d="M106 0V384"/><path d="M236 0V384"/><path d="M370 0V384"/><path d="M520 0V384"/><path d="M642 0V384"/>
  </g>
  <g opacity="0.96">
    <path d="M276 326L304 166L362 118L434 118L486 164L508 326Z" fill="#ced4e1"/>
    <path d="M320 168L352 144H426L456 168L428 240H346Z" fill="#141b2e"/>
    <circle cx="362" cy="190" r="12" fill="#5ee1ff"/>
    <circle cx="414" cy="190" r="12" fill="#f964d4"/>
    <path d="M334 252H438L460 326H308Z" fill="#1a1d28"/>
    <path d="M262 176L230 124L262 98L300 162Z" fill="#b5c2d8"/>
    <path d="M520 176L552 124L520 98L482 162Z" fill="#b5c2d8"/>
  </g>
  <path d="M120 310C198 194 254 124 374 112C502 100 590 154 666 276" stroke="url(#amGlow)" stroke-width="10" fill="none" opacity="0.88"/>
  <path d="M104 338C194 208 272 152 392 146C522 140 608 184 688 308" stroke="#ffffff" stroke-width="3" fill="none" opacity="0.44"/>
</svg>
