<svg xmlns="http://www.w3.org/2000/svg" viewBox="0 0 740 384" role="img" aria-labelledby="title desc">
  <title id="title">ROMEO IS A DEAD MAN cover version one</title>
  <desc id="desc">An energetic sci-fi action cover inspired by ROMEO IS A DEAD MAN key art.</desc>
  <defs>
    <linearGradient id="rdBg" x1="0" y1="0" x2="1" y2="1">
      <stop offset="0" stop-color="#040707"/>
      <stop offset="0.4" stop-color="#14141a"/>
      <stop offset="1" stop-color="#220f1d"/>
    </linearGradient>
    <linearGradient id="rdStreak" x1="0" y1="0" x2="1" y2="0">
      <stop offset="0" stop-color="#94f9ff" stop-opacity="0.92"/>
      <stop offset="0.5" stop-color="#ffffff" stop-opacity="0.9"/>
      <stop offset="1" stop-color="#ff6a7d" stop-opacity="0.1"/>
    </linearGradient>
    <radialGradient id="rdGlow" cx="92%" cy="18%" r="40%">
      <stop offset="0" stop-color="#f6c84f" stop-opacity="0.9"/>
      <stop offset="0.28" stop-color="#f6c84f" stop-opacity="0.34"/>
      <stop offset="1" stop-color="#f6c84f" stop-opacity="0"/>
    </radialGradient>
  </defs>
  <rect width="740" height="384" fill="url(#rdBg)"/>
  <rect width="740" height="384" fill="url(#rdGlow)"/>
  <path d="M0 68L740 280" stroke="#4cffd5" stroke-width="5" opacity="0.24"/>
  <path d="M18 0L600 384" stroke="#ffe25b" stroke-width="3" opacity="0.14"/>
  <path d="M-12 338L708 0" stroke="#ff4670" stroke-width="3" opacity="0.16"/>
  <path d="M18 286C126 260 232 188 324 132C404 84 516 74 740 74" stroke="url(#rdStreak)" stroke-width="12" fill="none" opacity="0.95"/>
  <path d="M36 304C142 272 250 198 340 150C436 96 556 100 740 132" stroke="#ffffff" stroke-width="4" fill="none" opacity="0.74"/>
  <g opacity="0.92">
    <rect x="106" y="118" width="116" height="88" rx="8" fill="#10212b" transform="rotate(-12 164 162)"/>
    <circle cx="152" cy="150" r="28" fill="#f0d9d0"/>
    <rect x="132" y="178" width="50" height="18" rx="9" fill="#3d4f68"/>
    <rect x="252" y="136" width="140" height="108" rx="10" fill="#39191f" transform="rotate(8 322 190)"/>
    <circle cx="314" cy="182" r="34" fill="#e1c3c1"/>
    <path d="M288 228L340 222L360 244L302 254Z" fill="#0f1015"/>
    <rect x="414" y="130" width="182" height="130" rx="10" fill="#1d1f25" transform="rotate(-7 505 195)"/>
    <circle cx="476" cy="188" r="36" fill="#cfccc7"/>
    <circle cx="562" cy="214" r="28" fill="#f1efe7"/>
  </g>
  <text x="378" y="70" fill="#ffd22f" font-family="Bahnschrift, 'Segoe UI', sans-serif" font-size="36" font-weight="800" text-anchor="middle">ROMEO IS</text>
  <text x="378" y="110" fill="#ffd22f" font-family="Bahnschrift, 'Segoe UI', sans-serif" font-size="56" font-weight="800" text-anchor="middle">A DEAD MAN</text>
  <ellipse cx="386" cy="70" rx="180" ry="22" fill="none" stroke="#ffd22f" stroke-width="10" opacity="0.88"/>
</svg>
