<svg xmlns="http://www.w3.org/2000/svg" viewBox="0 0 740 384" role="img" aria-labelledby="title desc">
  <title id="title">ChromaGun 2 Dye Hard cover</title>
  <desc id="desc">A stylized neon cover inspired by ChromaGun 2 Dye Hard artwork.</desc>
  <defs>
    <linearGradient id="cgBg" x1="0" y1="0" x2="1" y2="1">
      <stop offset="0" stop-color="#090710"/>
      <stop offset="0.5" stop-color="#17182a"/>
      <stop offset="1" stop-color="#0c0a10"/>
    </linearGradient>
    <radialGradient id="cgGlowPink" cx="28%" cy="34%" r="42%">
      <stop offset="0" stop-color="#ff6fca" stop-opacity="0.95"/>
      <stop offset="1" stop-color="#ff6fca" stop-opacity="0"/>
    </radialGradient>
    <radialGradient id="cgGlowMint" cx="60%" cy="42%" r="38%">
      <stop offset="0" stop-color="#6fffd0" stop-opacity="0.92"/>
      <stop offset="1" stop-color="#6fffd0" stop-opacity="0"/>
    </radialGradient>
    <filter id="cgBlur" x="-20%" y="-20%" width="140%" height="140%">
      <feGaussianBlur stdDeviation="16"/>
    </filter>
  </defs>
  <rect width="740" height="384" fill="url(#cgBg)"/>
  <rect width="740" height="384" fill="url(#cgGlowPink)" opacity="0.6"/>
  <rect width="740" height="384" fill="url(#cgGlowMint)" opacity="0.55"/>
  <g filter="url(#cgBlur)" opacity="0.94">
    <path d="M-10 216C84 112 158 112 250 202C322 272 376 194 444 120C528 28 626 72 760 184L760 386L-10 386Z" fill="#73ffbe"/>
    <path d="M-20 82C108 24 212 56 290 140C352 208 404 192 470 120C570 10 690 42 760 92L760 0L0 0Z" fill="#8d61ff" opacity="0.84"/>
    <path d="M88 0C196 0 230 24 258 82C294 154 330 164 420 114C524 54 618 28 740 36L740 0Z" fill="#fd74d9" opacity="0.74"/>
  </g>
  <g opacity="0.9">
    <path d="M362 322L386 204L410 204L430 322Z" fill="#191818"/>
    <circle cx="398" cy="176" r="26" fill="#1b191b"/>
    <path d="M348 244L286 260L280 236L344 214Z" fill="#d1d5df"/>
    <path d="M286 260L244 226L258 208L304 232Z" fill="#9cf6d8"/>
  </g>
  <g opacity="0.78">
    <path d="M602 330L634 222L686 196L710 224L692 330Z" fill="#161518"/>
    <circle cx="654" cy="172" r="26" fill="#141317"/>
  </g>
  <g opacity="0.64">
    <path d="M84 316L116 232L164 210L182 238L168 316Z" fill="#19181c"/>
    <circle cx="128" cy="186" r="22" fill="#141319"/>
  </g>
  <rect x="0" y="340" width="740" height="44" fill="#0c0b11" opacity="0.48"/>
  <text x="566" y="328" fill="#f7f4ff" font-family="Bahnschrift, 'Segoe UI', sans-serif" font-size="24" font-weight="700" text-anchor="end">CHROMAGUN 2</text>
  <text x="652" y="352" fill="#f25fa1" font-family="Bahnschrift, 'Segoe UI', sans-serif" font-size="12" font-weight="700" letter-spacing="4" text-anchor="end">DYE HARD</text>
</svg>
