<svg xmlns="http://www.w3.org/2000/svg" viewBox="0 0 740 384" role="img" aria-labelledby="title desc">
  <title id="title">8-bit City wallpaper</title>
  <desc id="desc">A neon cyber city wallpaper inspired by ROG style references.</desc>
  <defs>
    <linearGradient id="cityBg" x1="0" y1="0" x2="1" y2="1">
      <stop offset="0" stop-color="#06102a"/>
      <stop offset="0.48" stop-color="#140833"/>
      <stop offset="1" stop-color="#09080d"/>
    </linearGradient>
    <linearGradient id="cityGlow" x1="0" y1="0" x2="1" y2="0">
      <stop offset="0" stop-color="#10d2ff"/>
      <stop offset="0.5" stop-color="#ff53bc"/>
      <stop offset="1" stop-color="#7659ff"/>
    </linearGradient>
  </defs>
  <rect width="740" height="384" fill="url(#cityBg)"/>
  <rect y="248" width="740" height="136" fill="#07070a"/>
  <path d="M0 250L740 250" stroke="#3af0ff" stroke-width="2" opacity="0.3"/>
  <g fill="#18235b">
    <rect x="44" y="120" width="74" height="128"/><rect x="130" y="96" width="86" height="152"/>
    <rect x="236" y="74" width="102" height="174"/><rect x="356" y="110" width="76" height="138"/>
    <rect x="450" y="64" width="124" height="184"/><rect x="592" y="98" width="88" height="150"/>
  </g>
  <g fill="url(#cityGlow)">
    <rect x="64" y="140" width="36" height="10"/><rect x="146" y="124" width="42" height="12"/><rect x="258" y="102" width="54" height="14"/>
    <rect x="384" y="150" width="28" height="8"/><rect x="486" y="92" width="64" height="12"/><rect x="620" y="122" width="38" height="10"/>
    <rect x="118" y="176" width="24" height="8"/><rect x="274" y="138" width="34" height="8"/><rect x="518" y="152" width="28" height="8"/>
  </g>
  <g stroke="#21f7ff" stroke-width="2" opacity="0.55">
    <path d="M14 320H726"/><path d="M70 292H286"/><path d="M394 284H664"/>
  </g>
  <g fill="#0d0d11">
    <path d="M110 384L138 302L176 302L204 384Z"/>
    <path d="M492 384L528 290L570 290L610 384Z"/>
    <path d="M266 384L302 274L344 274L378 384Z"/>
  </g>
  <path d="M196 76L514 76L580 134H264Z" fill="#ff37c2" opacity="0.15"/>
  <text x="84" y="72" fill="#ff69c9" font-family="Bahnschrift, 'Segoe UI', sans-serif" font-size="38" font-weight="700">ROG</text>
</svg>
