<svg xmlns="http://www.w3.org/2000/svg" viewBox="0 0 64 64" role="img" aria-label="Minesweeper icon">
  <defs>
    <linearGradient id="bg" x1="0" y1="0" x2="1" y2="1">
      <stop offset="0%" stop-color="#dadada" />
      <stop offset="100%" stop-color="#9a9a9a" />
    </linearGradient>
  </defs>
  <rect x="4" y="4" width="56" height="56" rx="6" fill="url(#bg)" stroke="#5f5f5f" stroke-width="2"/>
  <rect x="10" y="10" width="44" height="44" fill="#c0c0c0" stroke="#6e6e6e" stroke-width="1.5"/>
  <g stroke="#7f7f7f" stroke-width="1">
    <line x1="10" y1="24.7" x2="54" y2="24.7"/>
    <line x1="10" y1="39.3" x2="54" y2="39.3"/>
    <line x1="24.7" y1="10" x2="24.7" y2="54"/>
    <line x1="39.3" y1="10" x2="39.3" y2="54"/>
  </g>
  <g transform="translate(32 32)">
    <circle r="8" fill="#161616"/>
    <circle r="3" fill="#3a3a3a"/>
    <g stroke="#161616" stroke-width="2" stroke-linecap="round">
      <line x1="0" y1="-14" x2="0" y2="-9"/>
      <line x1="0" y1="14" x2="0" y2="9"/>
      <line x1="-14" y1="0" x2="-9" y2="0"/>
      <line x1="14" y1="0" x2="9" y2="0"/>
      <line x1="-10" y1="-10" x2="-6" y2="-6"/>
      <line x1="10" y1="10" x2="6" y2="6"/>
      <line x1="10" y1="-10" x2="6" y2="-6"/>
      <line x1="-10" y1="10" x2="-6" y2="6"/>
    </g>
  </g>
</svg>
