<svg xmlns="http://www.w3.org/2000/svg" viewBox="0 0 64 64" role="img" aria-label="Solitaire icon">
  <defs>
    <linearGradient id="felt" x1="0" y1="0" x2="1" y2="1">
      <stop offset="0%" stop-color="#0b7b35"/>
      <stop offset="100%" stop-color="#065125"/>
    </linearGradient>
  </defs>
  <rect x="4" y="4" width="56" height="56" rx="6" fill="url(#felt)" stroke="#0d3318" stroke-width="2"/>
  <rect x="14" y="12" width="24" height="34" rx="3" fill="#ffffff" stroke="#2a2a2a" stroke-width="1.5"/>
  <rect x="26" y="18" width="24" height="34" rx="3" fill="#ffffff" stroke="#2a2a2a" stroke-width="1.5"/>
  <g fill="#111" transform="translate(38 35)">
    <path d="M0-7c-2.2 0-4 1.8-4 4 0 .6.1 1.1.3 1.6C-4.7-1-5.4.1-5.4 1.4c0 2 1.6 3.6 3.6 3.6 1 0 2-.4 2.7-1.1V8h2.2V3.9C3.8 4.6 4.8 5 5.8 5c2 0 3.6-1.6 3.6-3.6 0-1.3-.7-2.4-1.7-2.9.2-.5.3-1 .3-1.6 0-2.2-1.8-4-4-4-1.1 0-2.1.4-2.9 1.2C2.1-6.6 1.1-7 0-7z"/>
  </g>
</svg>
